# xmcd
#
# Track frame offsets:
#	150
#	8904
#	25709
#	38809
#	49529
#	60724
#	71979
#	81053
#	89572
#	102593
#	115879
#	127958
#	139005
#	150505
#	161052
#	176702
#	188267
#	205130
#	216500
#	228814
#	239446
#	247958
#	260132
#	273894
#	287460
#	296534
#	309640
#	319164
#	334540
#	344447
#
# Disc length: 4724 seconds
#
# Revision: 2
# Processed by: cddbd v1.5.2PL0 Copyright (c) Steve Scherf et al.
# Submitted via: audiograbber 1.83.01
#
DISCID=b112721e
DTITLE=Frank Ifield - Frank Ifield Sings Country and Classics
DYEAR=2002
DGENRE=Pop
TTITLE0=I've Got A Feeling
TTITLE1=Unchained Melody
TTITLE2=That Lucky Old Sun
TTITLE3=Yerranderie (with Dick Carr and His Buckaroos)
TTITLE4=No Need To Cry Anymore
TTITLE5=Deep Purple
TTITLE6=Will I Ever
TTITLE7=Since You Went Away
TTITLE8=Kaw Liga
TTITLE9=Molly Darling (with Dick Carr and His Buckaroos)
TTITLE10=Troubled Heart (with Dick Carr and His Buckaroos)
TTITLE11=These Hands
TTITLE12=Put Me In Your Pocket
TTITLE13=You Better Not Do That
TTITLE14=Autumn Leaves
TTITLE15=Serves You Right
TTITLE16=Legend Of The Robin's Red Breast
TTITLE17=That Old Feeling
TTITLE18=Yodelling Mad
TTITLE19=Sad Am I (with the Billy Antman Sextet)
TTITLE20=Don't Do That
TTITLE21=Pale Moon
TTITLE22=I'll Be Yours
TTITLE23=Gypsy Heart
TTITLE24=Guardian Angel
TTITLE25=Maybe I'll Cry Over You (with Dick Carr and His Buckaroos)
TTITLE26=True
TTITLE27=Gold Digger Blues (with Dick Carr and His Buckaroos)
TTITLE28=I Believe
TTITLE29=Chip Off The Old Block (with the Billy Antman Sextet and the Rock-a Bell
TTITLE29=es)
EXTD=
EXTT0=
EXTT1=
EXTT2=
EXTT3=
EXTT4=
EXTT5=
EXTT6=
EXTT7=
EXTT8=
EXTT9=
EXTT10=
EXTT11=
EXTT12=
EXTT13=
EXTT14=
EXTT15=
EXTT16=
EXTT17=
EXTT18=
EXTT19=
EXTT20=
EXTT21=
EXTT22=
EXTT23=
EXTT24=
EXTT25=
EXTT26=
EXTT27=
EXTT28=
EXTT29=
PLAYORDER=
